# xmcd
#
# Track frame offsets:
#  150
#  20182
#  41260
#  62964
#  80801
#  94929
#  115875
#  140426
#  163880
#  183441
#  205327
#  225124
#  245182
#  261191
#  277827
#  302352
#
# Disc length: 4321 seconds
#
# Revision: 0
# Processed by: cddbd v1.4PL0 Copyright (c) Steve Scherf et al.
# Submitted via: AltoMP3_Maker 3.0
#
DISCID=e010df10
DTITLE=任贤齐等 - 世纪风男人篇ONE
DYEAR=1900
DGENRE=
TTITLE0=拥抱的快乐
TTITLE1=流浪狗
TTITLE2=替身
TTITLE3=踢出个未来
TTITLE4=机车与芭乐
TTITLE5=天天想恋爱
TTITLE6=陪你一起老`
TTITLE7=深爱
TTITLE8=寂寞的包围
TTITLE9=忘不了
TTITLE10=那么爱你为什么
TTITLE11=102%爱你
TTITLE12=好想好想
TTITLE13=大丈夫
TTITLE14=我所爱的让我流泪
TTITLE15=忠孝东路走九遍
EXTD=
EXTT0=
EXTT1=
EXTT2=
EXTT3=
EXTT4=
EXTT5=
EXTT6=
EXTT7=
EXTT8=
EXTT9=
EXTT10=
EXTT11=
EXTT12=
EXTT13=
EXTT14=
EXTT15=
PLAYORDER=
